<svg viewBox="0 0 42 48" xmlns="http://www.w3.org/2000/svg" xmlns:xlink="http://www.w3.org/1999/xlink" width="42.000000" height="48.000000" fill="none" customFrame="#000000">
	<g id="shield">
		<path id="Path" d="M41.2085 6.03027L21.2475 0.0419649C21.0606 -0.0139883 20.8614 -0.0139883 20.6746 0.0419649L0.713585 6.03027C0.290848 6.15649 0.00107013 6.54526 0.000976562 6.98643L0.000976562 28.9436C0.000976562 37.7684 13.4587 45.619 20.6646 47.8626C20.8596 47.9239 21.0686 47.9239 21.2635 47.8626C28.4614 45.6189 41.9191 37.7683 41.9191 28.9436L41.9191 6.98634C41.9192 6.54573 41.6304 6.15715 41.2085 6.03027Z" fill="rgb(255,0,67)" fill-rule="nonzero" />
		<path id="Path" d="M18.9643 31.9376C18.6994 31.9381 18.4452 31.8333 18.2577 31.6462L10.2733 23.6618C9.89043 23.2653 9.90137 22.6335 10.2978 22.2505C10.6846 21.877 11.2978 21.877 11.6845 22.2505L18.9643 29.5283L32.2304 16.2622C32.6133 15.8658 33.2451 15.8547 33.6416 16.2377C34.0381 16.6207 34.049 17.2524 33.6661 17.649C33.6581 17.6573 33.65 17.6654 33.6416 17.6735L19.669 31.6462C19.4819 31.8327 19.2285 31.9375 18.9643 31.9376Z" fill="rgb(250,250,250)" fill-rule="nonzero" />
	</g>
</svg>
